# xmcd
#
# Track frame offsets:
#	150
#	12358
#	25027
#	42660
#	51445
#	64121
#	74913
#	91243
#	112432
#	126472
#	151544
#
# Disc length: 2492
#
# Revision: 1
# Processed by: cddbd v1.5.1PL0 Copyright (c) Steve Scherf et al.
# Submitted via: CDex 1.51
# Normalized: r0:DSETVAR1,TDELIM( - )
#
DISCID=a109ba0b
DTITLE=Various Artist - Songmaterial 1.11.2004
DYEAR=1900
DGENRE=Blues
TTITLE0=Frankie Ford - Sea Cruise
TTITLE1=Mojo Blues Band Feat. Dana Gillespie - Sea Cruise
TTITLE2=Ludwig Hirsch - Gel Du magst mi
TTITLE3=Fats Domino - I Hear You Knocking
TTITLE4=Dave Edmunds - I Hear You Knocking
TTITLE5=Burce Channel - Hey Baby
TTITLE6=DJ Ötzi - Hey Baby
TTITLE7=Louis Prima - Gigolo and I ain't got nobody
TTITLE8=Bert Kämpfert - A swinging safari
TTITLE9=Bill Doggett - Honky Tonk
TTITLE10=Blues Brothers - Sweet Home Chicago
EXTD=
EXTT0=
EXTT1=
EXTT2=
EXTT3=
EXTT4=
EXTT5=
EXTT6=
EXTT7=
EXTT8=
EXTT9=
EXTT10=
PLAYORDER=
